<?xml version="1.0" standalone="no"?>
<!DOCTYPE svg PUBLIC "-//W3C//DTD SVG 20010904//EN"
 "http://www.w3.org/TR/2001/REC-SVG-20010904/DTD/svg10.dtd">
<svg version="1.0" xmlns="http://www.w3.org/2000/svg"
 width="70.000000pt" height="65.000000pt" viewBox="0 0 70.000000 65.000000"
 preserveAspectRatio="xMidYMid meet">
<metadata>
Created by potrace 1.16, written by Peter Selinger 2001-2019
</metadata>
<g transform="translate(0.000000,65.000000) scale(0.100000,-0.100000)"
fill="#000000" stroke="none">
<path d="M130 560 c0 -14 -7 -20 -22 -20 -42 0 -52 -14 -44 -61 9 -59 30 -87
77 -108 22 -10 52 -36 70 -60 17 -24 44 -50 60 -59 29 -17 39 -53 21 -77 -12
-18 -82 -55 -103 -55 -16 0 -19 -7 -19 -50 l0 -50 170 0 170 0 0 50 c0 46 -2
50 -24 50 -13 0 -29 7 -36 15 -7 8 -18 15 -26 15 -21 0 -44 30 -44 59 0 19 8
32 29 44 16 9 42 37 57 61 19 31 37 46 57 50 45 9 84 56 92 110 8 52 0 66 -42
66 -16 0 -23 6 -23 20 0 19 -7 20 -210 20 -203 0 -210 -1 -210 -20z m404 -17
c-41 -190 -110 -293 -196 -293 -81 0 -141 77 -177 228 -10 42 -17 80 -14 85 2
4 92 7 199 7 l194 0 -6 -27z m-44 -478 l0 -36 -152 3 -151 3 -1 33 -1 32 153
0 152 0 0 -35z"/>
</g>
</svg>
